<svg width="40" height="40" viewBox="0 0 40 40" fill="none" xmlns="http://www.w3.org/2000/svg">
<mask id="mask0_243_46" style="mask-type:alpha" maskUnits="userSpaceOnUse" x="0" y="0" width="40" height="40">
<rect width="40" height="40" fill="#D9D9D9"/>
</mask>
<g mask="url(#mask0_243_46)">
<path d="M10.1656 36.3638L9.69727 32.5119L15.0361 18.7678C15.5044 19.1764 16.0118 19.5192 16.5581 19.7964C17.1045 20.0737 17.6899 20.2852 18.3143 20.4311L13.1628 33.65L10.1656 36.3638ZM29.835 36.3638L26.8378 33.65L21.6862 20.4311C22.3107 20.2852 22.8961 20.0737 23.4424 19.7964C23.9888 19.5192 24.4962 19.1764 24.9645 18.7678L30.3033 32.5119L29.835 36.3638ZM20.0003 18.8554C18.4392 18.8554 17.1123 18.3447 16.0196 17.3234C14.9268 16.3021 14.3805 15.0619 14.3805 13.6028C14.3805 12.4648 14.7317 11.4508 15.4342 10.5608C16.1367 9.67074 17.0343 9.05065 18.127 8.70048V4.84863H21.8736V8.70048C22.9663 9.05065 23.8639 9.67074 24.5664 10.5608C25.2689 11.4508 25.6201 12.4648 25.6201 13.6028C25.6201 15.0619 25.0738 16.3021 23.981 17.3234C22.8883 18.3447 21.5614 18.8554 20.0003 18.8554ZM20.0003 15.3537C20.5311 15.3537 20.976 15.1859 21.335 14.8503C21.6941 14.5147 21.8736 14.0989 21.8736 13.6028C21.8736 13.1068 21.6941 12.6909 21.335 12.3554C20.976 12.0198 20.5311 11.852 20.0003 11.852C19.4695 11.852 19.0246 12.0198 18.6656 12.3554C18.3065 12.6909 18.127 13.1068 18.127 13.6028C18.127 14.0989 18.3065 14.5147 18.6656 14.8503C19.0246 15.1859 19.4695 15.3537 20.0003 15.3537Z" fill="white"/>
</g>
</svg>
