<svg width="42" height="42" viewBox="0 0 42 42" fill="none" xmlns="http://www.w3.org/2000/svg">
<mask id="mask0_243_69" style="mask-type:alpha" maskUnits="userSpaceOnUse" x="0" y="0" width="42" height="42">
<rect width="42" height="42" fill="#D9D9D9"/>
</mask>
<g mask="url(#mask0_243_69)">
<path d="M10.1111 31.5C9.25556 31.5 8.52315 31.2525 7.91389 30.7575C7.30463 30.2624 7 29.6674 7 28.9722V11.2778C7 10.5826 7.30463 9.98756 7.91389 9.49253C8.52315 8.99751 9.25556 8.75 10.1111 8.75H31.8889C32.7444 8.75 33.4769 8.99751 34.0861 9.49253C34.6954 9.98756 35 10.5826 35 11.2778V28.9722C35 29.6674 34.6954 30.2624 34.0861 30.7575C33.4769 31.2525 32.7444 31.5 31.8889 31.5H10.1111ZM10.1111 26.3812V28.9722H31.8889V17.9132L22.6333 26.4444L16.3333 21.3257L10.1111 26.3812ZM10.1111 22.7792L16.3333 17.7236L22.4778 22.716L31.8889 14.1215V11.2778H10.1111V22.7792ZM10.1111 17.9132V14.1215V22.716V17.7236V26.3812V21.3257V26.4444V17.9132ZM10.1111 22.7792V11.2778V22.716V17.7236V22.7792ZM10.1111 26.3812V21.3257V26.4444V17.9132V28.9722V26.3812Z" fill="white"/>
</g>
</svg>
