<svg width="37" height="37" viewBox="0 0 37 37" fill="none" xmlns="http://www.w3.org/2000/svg">
<path d="M7.32292 2.89062C6.45406 2.89063 5.62078 3.23578 5.00641 3.85016C4.39203 4.46453 4.04688 5.29781 4.04688 6.16667C4.04688 7.03553 4.39203 7.8688 5.00641 8.48318C5.62078 9.09756 6.45406 9.44271 7.32292 9.44271C8.19178 9.44271 9.02505 9.09756 9.63943 8.48318C10.2538 7.8688 10.599 7.03553 10.599 6.16667C10.599 5.29781 10.2538 4.46453 9.63943 3.85016C9.02505 3.23578 8.19178 2.89063 7.32292 2.89062ZM4.23958 12.1406C4.18847 12.1406 4.13946 12.1609 4.10332 12.1971C4.06718 12.2332 4.04688 12.2822 4.04688 12.3333V32.375C4.04688 32.4814 4.13321 32.5677 4.23958 32.5677H10.4062C10.4574 32.5677 10.5064 32.5474 10.5425 32.5113C10.5787 32.4751 10.599 32.4261 10.599 32.375V12.3333C10.599 12.2822 10.5787 12.2332 10.5425 12.1971C10.5064 12.1609 10.4574 12.1406 10.4062 12.1406H4.23958ZM14.2604 12.1406C14.2093 12.1406 14.1603 12.1609 14.1242 12.1971C14.088 12.2332 14.0677 12.2822 14.0677 12.3333V32.375C14.0677 32.4814 14.154 32.5677 14.2604 32.5677H20.4271C20.4782 32.5677 20.5272 32.5474 20.5633 32.5113C20.5995 32.4751 20.6198 32.4261 20.6198 32.375V21.5833C20.6198 20.8167 20.9243 20.0814 21.4664 19.5394C22.0085 18.9973 22.7438 18.6927 23.5104 18.6927C24.2771 18.6927 25.0123 18.9973 25.5544 19.5394C26.0965 20.0814 26.401 20.8167 26.401 21.5833V32.375C26.401 32.4814 26.4874 32.5677 26.5938 32.5677H32.7604C32.8115 32.5677 32.8605 32.5474 32.8967 32.5113C32.9328 32.4751 32.9531 32.4261 32.9531 32.375V19.0858C32.9531 15.3442 29.7002 12.4181 25.9771 12.7557C24.8251 12.8606 23.6967 13.1457 22.6332 13.6006L20.6198 14.4639V12.3333C20.6198 12.2822 20.5995 12.2332 20.5633 12.1971C20.5272 12.1609 20.4782 12.1406 20.4271 12.1406H14.2604Z" fill="#050629"/>
</svg>
