<svg width="42" height="42" viewBox="0 0 42 42" fill="none" xmlns="http://www.w3.org/2000/svg">
<mask id="mask0_243_81" style="mask-type:alpha" maskUnits="userSpaceOnUse" x="0" y="0" width="42" height="42">
<rect width="42" height="42" fill="#D9D9D9"/>
</mask>
<g mask="url(#mask0_243_81)">
<path d="M21.5 37C19.1083 37 16.8479 36.5669 14.7188 35.7006C12.5896 34.8344 10.7302 33.6519 9.14062 32.1531C7.55104 30.6544 6.29688 28.9012 5.37813 26.8937C4.45937 24.8862 4 22.755 4 20.5C4 18.2175 4.47396 16.0725 5.42188 14.065C6.36979 12.0575 7.65313 10.3112 9.27187 8.82625C10.8906 7.34125 12.7792 6.16563 14.9375 5.29938C17.0958 4.43312 19.4 4 21.85 4C24.1833 4 26.3854 4.37812 28.4563 5.13437C30.5271 5.89062 32.3427 6.93563 33.9031 8.26938C35.4635 9.60313 36.7031 11.1844 37.6219 13.0131C38.5406 14.8419 39 16.815 39 18.9325C39 22.095 37.9792 24.5219 35.9375 26.2131C33.8958 27.9044 31.4167 28.75 28.5 28.75H25.2625C25 28.75 24.8177 28.8188 24.7156 28.9562C24.6135 29.0938 24.5625 29.245 24.5625 29.41C24.5625 29.74 24.7812 30.2144 25.2188 30.8331C25.6562 31.4519 25.875 32.16 25.875 32.9575C25.875 34.3325 25.474 35.35 24.6719 36.01C23.8698 36.67 22.8125 37 21.5 37ZM11.875 22.15C12.6333 22.15 13.2604 21.9163 13.7563 21.4487C14.2521 20.9812 14.5 20.39 14.5 19.675C14.5 18.96 14.2521 18.3688 13.7563 17.9012C13.2604 17.4338 12.6333 17.2 11.875 17.2C11.1167 17.2 10.4896 17.4338 9.99375 17.9012C9.49792 18.3688 9.25 18.96 9.25 19.675C9.25 20.39 9.49792 20.9812 9.99375 21.4487C10.4896 21.9163 11.1167 22.15 11.875 22.15ZM17.125 15.55C17.8833 15.55 18.5104 15.3162 19.0062 14.8488C19.5021 14.3813 19.75 13.79 19.75 13.075C19.75 12.36 19.5021 11.7688 19.0062 11.3012C18.5104 10.8338 17.8833 10.6 17.125 10.6C16.3667 10.6 15.7396 10.8338 15.2438 11.3012C14.7479 11.7688 14.5 12.36 14.5 13.075C14.5 13.79 14.7479 14.3813 15.2438 14.8488C15.7396 15.3162 16.3667 15.55 17.125 15.55ZM25.875 15.55C26.6333 15.55 27.2604 15.3162 27.7563 14.8488C28.2521 14.3813 28.5 13.79 28.5 13.075C28.5 12.36 28.2521 11.7688 27.7563 11.3012C27.2604 10.8338 26.6333 10.6 25.875 10.6C25.1167 10.6 24.4896 10.8338 23.9937 11.3012C23.4979 11.7688 23.25 12.36 23.25 13.075C23.25 13.79 23.4979 14.3813 23.9937 14.8488C24.4896 15.3162 25.1167 15.55 25.875 15.55ZM31.125 22.15C31.8833 22.15 32.5104 21.9163 33.0063 21.4487C33.5021 20.9812 33.75 20.39 33.75 19.675C33.75 18.96 33.5021 18.3688 33.0063 17.9012C32.5104 17.4338 31.8833 17.2 31.125 17.2C30.3667 17.2 29.7396 17.4338 29.2437 17.9012C28.7479 18.3688 28.5 18.96 28.5 19.675C28.5 20.39 28.7479 20.9812 29.2437 21.4487C29.7396 21.9163 30.3667 22.15 31.125 22.15ZM21.5 33.7C21.7625 33.7 21.974 33.6313 22.1344 33.4937C22.2948 33.3562 22.375 33.1775 22.375 32.9575C22.375 32.5725 22.1562 32.1187 21.7188 31.5963C21.2812 31.0737 21.0625 30.29 21.0625 29.245C21.0625 28.09 21.4854 27.1687 22.3313 26.4812C23.1771 25.7937 24.2125 25.45 25.4375 25.45H28.5C30.425 25.45 32.0729 24.9206 33.4438 23.8619C34.8146 22.8031 35.5 21.16 35.5 18.9325C35.5 15.605 34.151 12.8344 31.4531 10.6206C28.7552 8.40688 25.5542 7.3 21.85 7.3C17.8833 7.3 14.5 8.57875 11.7 11.1363C8.9 13.6938 7.5 16.815 7.5 20.5C7.5 24.1575 8.86354 27.2719 11.5906 29.8431C14.3177 32.4144 17.6208 33.7 21.5 33.7Z" fill="white"/>
</g>
</svg>
