<svg width="26" height="25" viewBox="0 0 26 25" fill="none" xmlns="http://www.w3.org/2000/svg">
<path d="M1.52941 25V21.0938L21.7375 0.456273C21.9068 0.284398 22.0847 0.165128 22.2713 0.0984618C22.4579 0.0317952 22.6439 -0.00101763 22.8295 2.40382e-05C23.0212 2.40382e-05 23.2139 0.0328368 23.4076 0.0984618C23.6014 0.165128 23.7696 0.28492 23.9123 0.457836L25.5534 2.13283C25.7216 2.27867 25.8384 2.45054 25.9036 2.64846C25.9689 2.84638 26.001 3.04325 26 3.23908C26 3.42971 25.9679 3.61981 25.9036 3.8094C25.8384 4.00002 25.7211 4.18179 25.5519 4.35471L5.35294 25H1.52941ZM3.05882 23.4375H4.69988L20.8459 6.95314L20.0399 6.09064L19.1956 5.26721L3.05882 21.7609V23.4375ZM20.0383 6.09221L19.1941 5.26721L20.8459 6.95314L20.0383 6.09221ZM15.7055 25C17.396 25 18.9662 24.5885 20.4161 23.7656C21.8639 22.9427 22.5879 21.7917 22.5879 20.3125C22.5879 19.4146 22.2922 18.6177 21.7008 17.9219C21.1084 17.224 20.2474 16.6474 19.1176 16.1922L17.9507 17.3859C18.9295 17.7266 19.6922 18.1484 20.2387 18.6516C20.7852 19.1537 21.0585 19.7073 21.0585 20.3125C21.0585 21.1917 20.5298 21.9323 19.4725 22.5344C18.4141 23.1365 17.1585 23.4375 15.7055 23.4375C15.4883 23.4375 15.3068 23.512 15.161 23.6609C15.0152 23.8099 14.9418 23.9958 14.9408 24.2188C14.9398 24.4417 15.0132 24.6276 15.161 24.7766C15.3089 24.9255 15.4904 25 15.7055 25ZM2.46694 14.8797L3.58494 13.7078C2.89874 13.3995 2.38486 13.0797 2.04329 12.7485C1.70172 12.4172 1.53043 12.074 1.52941 11.7188C1.52941 11.2458 1.81286 10.7833 2.37976 10.3313C2.94666 9.87814 4.01827 9.30574 5.59458 8.61408C7.60219 7.74533 8.95572 6.96252 9.65517 6.26564C10.3556 5.56773 10.7059 4.78127 10.7059 3.90627C10.7059 2.77398 10.2088 1.84013 9.2147 1.10471C8.22058 0.369294 6.93333 0.0010657 5.35294 2.40382e-05C4.40164 2.40382e-05 3.49827 0.178149 2.64282 0.534399C1.78737 0.890648 1.16643 1.32815 0.78 1.8469C0.637255 2.02606 0.576078 2.21877 0.59647 2.42502C0.616862 2.63127 0.715255 2.80471 0.891647 2.94533C1.06498 3.07033 1.24851 3.12242 1.44223 3.10158C1.63392 3.07867 1.80114 2.99429 1.94388 2.84846C2.35988 2.42346 2.85286 2.10315 3.42282 1.88752C3.9938 1.67086 4.63717 1.56252 5.35294 1.56252C6.55505 1.56252 7.49309 1.79377 8.16705 2.25627C8.84101 2.71877 9.17748 3.26877 9.17646 3.90627C9.17646 4.45106 8.89454 4.94325 8.3307 5.38283C7.76686 5.82241 6.65294 6.41981 4.98894 7.17502C3.08635 8.0271 1.77921 8.77918 1.06753 9.43127C0.355843 10.0833 0 10.8458 0 11.7188C0 12.3521 0.211568 12.9318 0.634705 13.4578C1.05886 13.9828 1.66961 14.4568 2.46694 14.8797Z" fill="white"/>
</svg>
