<svg width="40" height="40" viewBox="0 0 40 40" fill="none" xmlns="http://www.w3.org/2000/svg">
<path fill-rule="evenodd" clip-rule="evenodd" d="M26.208 36.6663V23.758H30.5413L31.1897 18.728H26.2063V15.5163C26.2063 14.0597 26.6113 13.0663 28.7013 13.0663H31.3647V8.56634C30.0748 8.42908 28.7785 8.36231 27.4813 8.36634C23.6413 8.36634 21.013 10.7113 21.013 15.0163V18.728H16.6663V23.758H21.0113V36.6663H5.17301C4.15634 36.6663 3.33301 35.843 3.33301 34.8263V5.17301C3.33301 4.15634 4.15634 3.33301 5.17301 3.33301H34.8263C35.843 3.33301 36.6663 4.15634 36.6663 5.17301V34.8263C36.6663 35.843 35.843 36.6663 34.8263 36.6663H26.208Z" fill="#050629"/>
</svg>
