<svg width="34" height="34" viewBox="0 0 34 34" fill="none" xmlns="http://www.w3.org/2000/svg">
<path d="M11.0497 2.83301H22.9497C27.483 2.83301 31.1663 6.51634 31.1663 11.0497V22.9497C31.1663 25.1289 30.3007 27.2188 28.7597 28.7597C27.2188 30.3007 25.1289 31.1663 22.9497 31.1663H11.0497C6.51634 31.1663 2.83301 27.483 2.83301 22.9497V11.0497C2.83301 8.87048 3.69869 6.78054 5.23961 5.23961C6.78054 3.69869 8.87048 2.83301 11.0497 2.83301ZM10.7663 5.66634C9.41374 5.66634 8.11653 6.20366 7.1601 7.1601C6.20366 8.11653 5.66634 9.41374 5.66634 10.7663V23.233C5.66634 26.0522 7.94717 28.333 10.7663 28.333H23.233C24.5856 28.333 25.8828 27.7957 26.8393 26.8393C27.7957 25.8828 28.333 24.5856 28.333 23.233V10.7663C28.333 7.94717 26.0522 5.66634 23.233 5.66634H10.7663ZM24.4372 7.79134C24.9068 7.79134 25.3573 7.97791 25.6893 8.31001C26.0214 8.6421 26.208 9.09252 26.208 9.56217C26.208 10.0318 26.0214 10.4822 25.6893 10.8143C25.3573 11.1464 24.9068 11.333 24.4372 11.333C23.9675 11.333 23.5171 11.1464 23.185 10.8143C22.8529 10.4822 22.6663 10.0318 22.6663 9.56217C22.6663 9.09252 22.8529 8.6421 23.185 8.31001C23.5171 7.97791 23.9675 7.79134 24.4372 7.79134ZM16.9997 9.91634C18.8783 9.91634 20.68 10.6626 22.0083 11.991C23.3367 13.3194 24.083 15.1211 24.083 16.9997C24.083 18.8783 23.3367 20.68 22.0083 22.0083C20.68 23.3367 18.8783 24.083 16.9997 24.083C15.1211 24.083 13.3194 23.3367 11.991 22.0083C10.6626 20.68 9.91634 18.8783 9.91634 16.9997C9.91634 15.1211 10.6626 13.3194 11.991 11.991C13.3194 10.6626 15.1211 9.91634 16.9997 9.91634ZM16.9997 12.7497C15.8725 12.7497 14.7915 13.1974 13.9945 13.9945C13.1974 14.7915 12.7497 15.8725 12.7497 16.9997C12.7497 18.1268 13.1974 19.2078 13.9945 20.0049C14.7915 20.8019 15.8725 21.2497 16.9997 21.2497C18.1268 21.2497 19.2078 20.8019 20.0049 20.0049C20.8019 19.2078 21.2497 18.1268 21.2497 16.9997C21.2497 15.8725 20.8019 14.7915 20.0049 13.9945C19.2078 13.1974 18.1268 12.7497 16.9997 12.7497Z" fill="#050629"/>
</svg>
